<?xml version="1.0" encoding="utf-8"?>
<!DOCTYPE svg PUBLIC "-//W3C//DTD SVG 1.1//EN" "http://www.w3.org/Graphics/SVG/1.1/DTD/svg11.dtd">
<svg version="1.1" id="Layer_1" xmlns="http://www.w3.org/2000/svg" xmlns:xlink="http://www.w3.org/1999/xlink" x="0px" y="0px"
	 width="204.59px" height="34.65px" viewBox="0 0 204.59 34.65" enable-background="new 0 0 204.59 34.65" xml:space="preserve">
<g>
	<rect x="88.496" y="0.002" fill="#FFFFFF" width="8.665" height="34.651"/>
	<path fill="#FFFFFF" d="M195.925,0.002v23.822h8.666V0.002H195.925z M195.925,34.653h8.666v-8.66h-8.666V34.653z"/>
	<polygon fill="#FFFFFF" points="0,0.002 0,8.667 8.662,8.667 8.662,34.653 17.325,34.653 17.325,8.667 25.989,8.667 25.989,0.002 	
		"/>
	<path fill="#FFFFFF" d="M182.906,0h-0.002v0.002h-8.566V0l0,0c-4.786,0-8.666,3.88-8.666,8.664v0.003h0.003v25.986h8.663v-8.66
		h8.566v8.66h8.664V8.667l0,0V8.664C191.568,3.88,187.692,0,182.906,0z M174.338,17.326V8.667l0,0l0,0h8.566l0,0l0,0v8.659H174.338z
		"/>
	<path fill="#FFFFFF" d="M45.309,0h-0.002v0.002h-8.565V0h-0.003c-4.785,0-8.661,3.88-8.661,8.664v0.003l0,0v25.986h8.664v-8.66
		h8.567v8.66h8.662V8.667l0,0V8.664C53.971,3.88,50.093,0,45.309,0z M36.741,17.326V8.667l0,0l0,0h8.565l0,0h0.002v8.659H36.741z"/>
	<path fill="#FFFFFF" d="M161.796,25.98V14.241h-13.064v6.498h4.401v5.241h-0.004v0.013h-8.591V25.98h-0.001V8.667h0.001l0,0h14.875
		V0.002h-14.875V0h-0.001c-4.786,0-8.662,3.88-8.662,8.664v0.003l0,0V25.98l0,0v0.005c0,4.774,3.866,8.652,8.639,8.662v0.006h8.666
		v-0.006c4.763-0.025,8.619-3.893,8.619-8.667l0,0H161.796z"/>
	<path fill="#FFFFFF" d="M84.331,8.664C84.331,3.88,80.452,0,75.669,0c-0.001,0-0.003,0.002-0.003,0.002l0,0H58.345v34.651h8.661
		v-8.66h3.409l3.661,8.66h8.664l-3.92-9.27c3.22-1.263,5.506-4.389,5.511-8.058l0,0V8.667l0,0V8.664z M75.668,17.311h-0.002v0.016
		h-8.66V8.667h8.66l0,0h0.002V17.311z"/>
	<polygon fill="#FFFFFF" points="123.339,0.002 123.339,20.75 110.409,0.002 101.68,0.002 101.68,34.653 110.342,34.653 
		110.342,13.796 123.339,34.653 132.001,34.653 132.001,0.002 	"/>
</g>
</svg>